<?xml version="1.0" standalone="no"?>
<!DOCTYPE svg PUBLIC "-//W3C//DTD SVG 20010904//EN"
 "http://www.w3.org/TR/2001/REC-SVG-20010904/DTD/svg10.dtd">
<svg version="1.0" xmlns="http://www.w3.org/2000/svg"
 width="955.000000pt" height="340.000000pt" viewBox="0 0 955.000000 340.000000"
 preserveAspectRatio="xMidYMid meet">

<g transform="translate(0.000000,340.000000) scale(0.100000,-0.100000)"
fill="#000000" stroke="none">
<path d="M5585 2588 c-3 -7 -4 -348 -3 -758 l3 -745 103 -3 102 -3 0 46 c0 25
1 45 3 45 2 0 23 -19 48 -42 116 -111 309 -100 424 23 93 100 139 240 139 429
0 198 -53 361 -151 457 -65 65 -112 86 -202 91 -95 6 -138 -8 -199 -63 -27
-25 -53 -45 -56 -45 -3 0 -6 131 -6 290 l0 290 -100 0 c-71 0 -102 -4 -105
-12z m452 -669 c58 -22 103 -86 129 -184 16 -59 18 -211 3 -274 -38 -168 -160
-255 -261 -186 -121 82 -162 357 -81 537 45 100 123 140 210 107z"/>
<path d="M2624 2577 c-3 -8 -4 -54 -2 -103 l3 -89 113 -3 112 -3 0 -549 0
-549 -147 -3 -148 -3 -3 -91 c-2 -69 1 -94 11 -103 11 -8 116 -11 393 -9 l379
3 0 100 0 100 -132 3 -133 3 0 642 c0 487 -3 646 -12 655 -18 18 -427 17 -434
-1z"/>
<path d="M8635 2578 c-3 -7 -4 -348 -3 -758 l3 -745 88 -3 c57 -2 94 1 103 9
11 9 14 45 14 163 l0 151 56 65 c30 36 57 64 60 63 3 -1 67 -100 141 -220 74
-120 140 -221 146 -225 16 -10 224 -10 230 0 3 4 -80 142 -185 307 -172 270
-189 301 -178 320 7 11 81 100 164 198 83 98 152 185 154 193 3 11 -18 14
-117 14 l-121 0 -47 -59 c-27 -32 -104 -125 -173 -207 l-125 -148 -6 85 c-3
46 -3 240 -1 431 4 272 2 351 -8 363 -16 20 -188 22 -195 3z"/>
<path d="M1154 2430 c-33 -22 -277 -198 -543 -392 -454 -331 -486 -356 -510
-403 -36 -72 -36 -160 1 -236 27 -53 31 -57 98 -83 l70 -28 0 -123 c0 -124 4
-155 22 -155 5 0 34 16 64 35 30 19 58 35 62 35 4 0 35 -41 70 -91 35 -50 69
-88 75 -86 8 2 13 44 15 130 1 70 4 127 5 127 2 0 115 -45 252 -100 156 -63
263 -100 286 -100 44 0 -8 -35 604 409 470 342 514 376 515 393 0 13 -33 39
-45 34 -30 -11 -47 101 -24 161 5 15 23 40 40 55 31 29 36 49 17 66 -21 16
-974 392 -996 392 -11 0 -46 -18 -78 -40z m633 -454 c7 -6 -203 -150 -216
-148 -31 2 -557 217 -558 227 0 6 44 42 98 82 l99 71 288 -115 c158 -63 288
-116 289 -117z m335 -195 c3 -22 -52 -65 -467 -368 -259 -189 -485 -353 -503
-364 l-32 -21 -270 108 -269 107 -3 60 -3 59 -138 55 c-75 30 -144 53 -152 49
-10 -4 -15 -20 -15 -52 0 -40 -2 -45 -18 -39 -9 4 -29 11 -44 17 -37 13 -62
80 -56 148 3 28 10 56 16 62 8 8 141 -41 464 -171 323 -129 465 -181 493 -181
37 0 79 28 510 343 l470 344 7 -66 c4 -36 9 -77 10 -90z"/>
<path d="M3823 2112 c-132 -47 -219 -156 -264 -329 -26 -104 -26 -282 0 -385
49 -192 150 -306 304 -344 79 -20 174 -10 249 26 156 73 248 261 249 505 1
252 -91 440 -248 513 -77 35 -212 42 -290 14z m206 -200 c45 -33 80 -94 101
-176 47 -184 0 -404 -100 -472 -72 -49 -166 -23 -215 60 -112 191 -66 537 80
603 38 17 101 10 134 -15z"/>
<path d="M4831 2115 c-70 -20 -108 -44 -161 -101 -81 -88 -130 -234 -130 -389
0 -210 82 -378 224 -464 47 -28 70 -35 129 -39 90 -5 143 9 202 53 l45 35 0
-33 c0 -39 -29 -103 -62 -139 -48 -50 -85 -63 -188 -62 -84 0 -104 3 -174 32
-44 18 -83 29 -87 25 -4 -4 -9 -51 -11 -103 l-3 -95 47 -23 c67 -32 221 -48
317 -34 180 27 291 130 343 318 20 74 22 106 26 522 2 244 1 455 -2 468 -6 24
-8 25 -94 22 l-87 -3 -5 -43 -5 -44 -30 32 c-16 18 -47 41 -68 52 -52 26 -157
32 -226 13z m200 -208 c132 -89 143 -441 17 -558 -71 -67 -149 -61 -218 18
-53 60 -70 121 -70 247 0 131 30 223 89 279 36 33 46 37 94 37 40 0 63 -6 88
-23z"/>
<path d="M6869 2116 c-144 -55 -228 -155 -275 -327 -25 -90 -25 -310 0 -398
41 -148 123 -259 230 -311 77 -37 132 -44 220 -30 90 14 150 46 212 111 74 79
119 186 139 332 l6 47 89 0 c95 0 100 -3 100 -59 0 -88 67 -248 136 -321 87
-93 207 -133 334 -110 211 38 335 216 347 501 10 208 -44 376 -152 479 -82 77
-129 94 -255 95 -99 0 -109 -2 -172 -33 -113 -55 -190 -165 -225 -323 l-18
-79 -97 0 c-95 0 -98 1 -98 23 0 82 -63 227 -132 302 -69 76 -147 109 -263
112 -57 2 -103 -2 -126 -11z m178 -193 c179 -85 181 -576 2 -668 -56 -30 -128
-15 -176 37 -25 26 -58 97 -68 145 l-6 32 32 -9 c108 -31 223 89 189 197 -25
78 -110 133 -181 118 l-30 -7 16 38 c48 114 133 159 222 117z m1010 0 c98 -46
160 -242 133 -419 -26 -172 -94 -264 -195 -264 -73 0 -130 53 -165 154 -30 84
-29 88 23 70 81 -29 174 22 197 107 34 126 -76 232 -203 196 l-27 -8 15 38
c52 124 131 169 222 126z"/>
</g>
</svg>
